<?xml version="1.0" encoding="UTF-8" standalone="no"?>
<!-- Generator: Adobe Illustrator 19.0.0, SVG Export Plug-In . SVG Version: 6.00 Build 0)  -->

<svg
   xmlns:dc="http://purl.org/dc/elements/1.1/"
   xmlns:cc="http://creativecommons.org/ns#"
   xmlns:rdf="http://www.w3.org/1999/02/22-rdf-syntax-ns#"
   xmlns:svg="http://www.w3.org/2000/svg"
   xmlns="http://www.w3.org/2000/svg"
   xmlns:sodipodi="http://sodipodi.sourceforge.net/DTD/sodipodi-0.dtd"
   xmlns:inkscape="http://www.inkscape.org/namespaces/inkscape"
   version="1.1"
   id="Capa_1"
   x="0px"
   y="0px"
   viewBox="0 0 456.029 456.029"
   style="enable-background:new 0 0 456.029 456.029;"
   xml:space="preserve"
   sodipodi:docname="shopping-cart.svg"
   inkscape:version="0.92.3 (2405546, 2018-03-11)"><metadata
   id="metadata55"><rdf:RDF><cc:Work
       rdf:about=""><dc:format>image/svg+xml</dc:format><dc:type
         rdf:resource="http://purl.org/dc/dcmitype/StillImage" /></cc:Work></rdf:RDF></metadata><defs
   id="defs53" /><sodipodi:namedview
   pagecolor="#ffffff"
   bordercolor="#666666"
   borderopacity="1"
   objecttolerance="10"
   gridtolerance="10"
   guidetolerance="10"
   inkscape:pageopacity="0"
   inkscape:pageshadow="2"
   inkscape:window-width="1920"
   inkscape:window-height="1017"
   id="namedview51"
   showgrid="false"
   inkscape:zoom="0.51751096"
   inkscape:cx="228.0145"
   inkscape:cy="228.0145"
   inkscape:window-x="2728"
   inkscape:window-y="-8"
   inkscape:window-maximized="1"
   inkscape:current-layer="Capa_1" />
<g
   id="g6">
	<g
   id="g4">
		<path
   d="M345.6,338.862c-29.184,0-53.248,23.552-53.248,53.248c0,29.184,23.552,53.248,53.248,53.248    c29.184,0,53.248-23.552,53.248-53.248C398.336,362.926,374.784,338.862,345.6,338.862z"
   id="path2"
   style="fill:#ffffff" />
	</g>
</g>
<g
   id="g12">
	<g
   id="g10">
		<path
   d="M439.296,84.91c-1.024,0-2.56-0.512-4.096-0.512H112.64l-5.12-34.304C104.448,27.566,84.992,10.67,61.952,10.67H20.48    C9.216,10.67,0,19.886,0,31.15c0,11.264,9.216,20.48,20.48,20.48h41.472c2.56,0,4.608,2.048,5.12,4.608l31.744,216.064    c4.096,27.136,27.648,47.616,55.296,47.616h212.992c26.624,0,49.664-18.944,55.296-45.056l33.28-166.4    C457.728,97.71,450.56,86.958,439.296,84.91z"
   id="path8"
   style="fill:#ffffff" />
	</g>
</g>
<g
   id="g18">
	<g
   id="g16">
		<path
   d="M215.04,389.55c-1.024-28.16-24.576-50.688-52.736-50.688c-29.696,1.536-52.224,26.112-51.2,55.296    c1.024,28.16,24.064,50.688,52.224,50.688h1.024C193.536,443.31,216.576,418.734,215.04,389.55z"
   id="path14"
   style="fill:#ffffff" />
	</g>
</g>
<g
   id="g20">
</g>
<g
   id="g22">
</g>
<g
   id="g24">
</g>
<g
   id="g26">
</g>
<g
   id="g28">
</g>
<g
   id="g30">
</g>
<g
   id="g32">
</g>
<g
   id="g34">
</g>
<g
   id="g36">
</g>
<g
   id="g38">
</g>
<g
   id="g40">
</g>
<g
   id="g42">
</g>
<g
   id="g44">
</g>
<g
   id="g46">
</g>
<g
   id="g48">
</g>
</svg>